<svg width="123" height="35" viewBox="0 0 123 35" fill="none" xmlns="http://www.w3.org/2000/svg">
<path fill-rule="evenodd" clip-rule="evenodd" d="M95.2406 15.0595V19.9374C95.9865 21.1138 97.4497 21.8885 99.0565 21.8885C101.495 21.8885 103.217 19.9947 103.217 17.4984C103.217 15.0021 101.495 13.1085 99.0565 13.1085C97.4497 13.1085 95.9865 13.8831 95.2406 15.0595ZM92.0846 10.3251H94.5808L95.2406 11.3868C96.2162 10.5836 97.5646 10.0956 99.0851 10.0956C103.331 10.0956 106.459 13.3092 106.459 17.4984C106.459 21.6877 103.331 24.9012 99.0851 24.9012C97.5646 24.9012 96.2162 24.4422 95.2406 23.6388V30.3065H92.0846V10.3251ZM50.0149 15.8736C48.6302 15.5281 47.7219 15.2458 47.7176 14.4978C47.7116 13.4677 48.8814 12.9919 49.97 12.9853C50.9333 12.9798 51.8843 13.3232 52.7957 14.0072L52.9833 14.1484L54.6697 11.7796L54.5019 11.6444C53.206 10.6065 51.6163 10.0864 49.7772 10.0972C47.212 10.1122 44.4602 11.5474 44.4785 14.6639C44.4886 16.4013 45.6446 17.6954 47.82 18.405C48.3134 18.5673 48.8138 18.6933 49.2979 18.8141L49.2995 18.8145C50.7361 19.1721 51.9755 19.4807 51.9815 20.5077C51.987 21.4458 50.8863 22.0135 49.8184 22.0197C48.4934 22.0274 47.131 21.5257 45.8779 20.568L45.6868 20.4212L44.0044 22.8549L44.1729 22.9883C45.7869 24.276 47.7121 24.9224 49.893 24.9095C52.4899 24.8943 55.2397 23.3193 55.2229 20.431C55.206 17.5634 52.5805 16.5179 50.0149 15.8736ZM58.3388 4.72064H61.4947V11.6737C62.4989 10.5835 64.0196 10.0956 65.5115 10.0956C69.0692 10.0956 71.3357 12.5633 71.3357 16.2646V24.6718H68.1797V16.3221C68.1797 14.7726 67.0322 13.1084 64.9089 13.1084C63.3022 13.1084 62.0687 13.9406 61.4947 15.6335V24.6718H58.3388V4.72064ZM85.2965 15.0594V19.9373C84.5217 21.1137 83.0584 21.8885 81.4805 21.8885C79.0418 21.8885 77.3204 19.9946 77.3204 17.4985C77.3204 15.0022 79.0418 13.1084 81.4805 13.1084C83.0584 13.1084 84.5217 13.883 85.2965 15.0594ZM81.452 24.9011C82.9725 24.9011 84.2923 24.4423 85.2965 23.6387L85.8621 24.6716H88.4524V10.3252H85.2965V11.3867C84.2923 10.5835 82.9725 10.0955 81.452 10.0955C77.2057 10.0955 74.0782 13.3091 74.0782 17.4985C74.0782 21.6877 77.2057 24.9011 81.452 24.9011ZM119.358 15.9203H111.984C112.501 14.1127 114.05 12.9936 115.743 12.9936C117.637 12.9936 118.985 13.9691 119.358 15.9203ZM115.972 10.0955C111.783 10.0955 108.627 13.3091 108.627 17.4983C108.627 21.6877 111.783 24.9011 116.03 24.9011C118.555 24.9011 120.649 23.8396 121.883 22.4048L119.76 20.1382C119.014 20.9703 117.751 21.7735 116.03 21.7735C113.878 21.7735 112.214 20.3962 111.898 18.3591H122.83V17.4983C122.629 12.9075 119.96 10.0955 115.972 10.0955Z" fill="#121314"/>
<path fill-rule="evenodd" clip-rule="evenodd" d="M0.0158691 17.4896C0.0211029 17.4962 0.0278941 17.5015 0.0356884 17.505L16.3481 23.4323L22.0732 21.3526L5.72516 15.416L0.0158691 17.4896Z" fill="#FF1943"/>
<path fill-rule="evenodd" clip-rule="evenodd" d="M0.0158691 17.4896C0.0211029 17.4962 0.0278941 17.5015 0.0356884 17.505L16.3481 23.4323L22.0732 21.3526L5.72516 15.416L0.0158691 17.4896Z" fill="url(#paint0_linear_1380_27057)" style="mix-blend-mode:multiply"/>
<path fill-rule="evenodd" clip-rule="evenodd" d="M32.6613 17.5153C32.656 17.5087 32.6492 17.5034 32.6414 17.4999L16.329 11.5726L10.6039 13.6523L26.952 19.5889L32.6613 17.5153Z" fill="#FF1943"/>
<path fill-rule="evenodd" clip-rule="evenodd" d="M32.6613 17.5153C32.656 17.5087 32.6492 17.5034 32.6414 17.4999L16.329 11.5726L10.6039 13.6523L26.952 19.5889L32.6613 17.5153Z" fill="url(#paint1_linear_1380_27057)" style="mix-blend-mode:multiply"/>
<path fill-rule="evenodd" clip-rule="evenodd" d="M0.0159469 17.4902L32.5822 5.6616C32.6106 5.65129 32.6106 5.61117 32.5822 5.60087L17.9115 0.271741C16.9157 -0.089966 15.8246 -0.0906394 14.8284 0.269839L2.30263 4.80232C0.921143 5.30222 0.000818601 6.61397 0.000818601 8.08312V9.74121C0.000818601 9.76362 0.0230755 9.77922 0.0441405 9.77158L15.1001 4.30997C15.9222 4.01173 16.8228 4.01044 17.6458 4.30632L21.1871 5.57947C21.2156 5.5897 21.2156 5.62993 21.1872 5.64024L0.0340627 13.3173C0.0136006 13.3247 -1.56187e-05 13.3442 8.29129e-06 13.366L0.00450111 17.4563C0.00454175 17.4567 0.00456245 17.4571 0.00456245 17.4576C0.00456245 17.4699 0.00882027 17.4813 0.0159469 17.4902Z" fill="#FF1943"/>
<path fill-rule="evenodd" clip-rule="evenodd" d="M0.0159469 17.4902L32.5822 5.6616C32.6106 5.65129 32.6106 5.61117 32.5822 5.60087L17.9115 0.271741C16.9157 -0.089966 15.8246 -0.0906394 14.8284 0.269839L2.30263 4.80232C0.921143 5.30222 0.000818601 6.61397 0.000818601 8.08312V9.74121C0.000818601 9.76362 0.0230755 9.77922 0.0441405 9.77158L15.1001 4.30997C15.9222 4.01173 16.8228 4.01044 17.6458 4.30632L21.1871 5.57947C21.2156 5.5897 21.2156 5.62993 21.1872 5.64024L0.0340627 13.3173C0.0136006 13.3247 -1.56187e-05 13.3442 8.29129e-06 13.366L0.00450111 17.4563C0.00454175 17.4567 0.00456245 17.4571 0.00456245 17.4576C0.00456245 17.4699 0.00882027 17.4813 0.0159469 17.4902Z" fill="url(#paint2_linear_1380_27057)" fill-opacity="0.25"/>
<path fill-rule="evenodd" clip-rule="evenodd" d="M32.6584 17.5109C32.6665 17.5192 32.672 17.5301 32.673 17.5424L32.6775 21.634C32.6775 21.6558 32.6639 21.6752 32.6434 21.6827L11.4903 29.3597C11.4619 29.3701 11.4619 29.4103 11.4904 29.4205L15.0317 30.6937C15.8547 30.9895 16.7552 30.9883 17.5774 30.69L32.6333 25.2284C32.6544 25.2208 32.6767 25.2364 32.6767 25.2588V26.9169C32.6767 28.386 31.7563 29.6978 30.3748 30.1977L17.8491 34.7301C16.8529 35.0906 15.7618 35.0899 14.766 34.7282L0.095283 29.3991C0.0669131 29.3888 0.0669169 29.3487 0.095283 29.3384L32.6584 17.5109Z" fill="#FF1943"/>
<path fill-rule="evenodd" clip-rule="evenodd" d="M32.6584 17.5109C32.6665 17.5192 32.672 17.5301 32.673 17.5424L32.6775 21.634C32.6775 21.6558 32.6639 21.6752 32.6434 21.6827L11.4903 29.3597C11.4619 29.3701 11.4619 29.4103 11.4904 29.4205L15.0317 30.6937C15.8547 30.9895 16.7552 30.9883 17.5774 30.69L32.6333 25.2284C32.6544 25.2208 32.6767 25.2364 32.6767 25.2588V26.9169C32.6767 28.386 31.7563 29.6978 30.3748 30.1977L17.8491 34.7301C16.8529 35.0906 15.7618 35.0899 14.766 34.7282L0.095283 29.3991C0.0669131 29.3888 0.0669169 29.3487 0.095283 29.3384L32.6584 17.5109Z" fill="url(#paint3_linear_1380_27057)" fill-opacity="0.25"/>
<path fill-rule="evenodd" clip-rule="evenodd" d="M0.0158691 17.4896C0.0211029 17.4962 0.0278941 17.5015 0.0356884 17.505L16.3481 23.4323L22.0732 21.3526L5.72516 15.416L0.0158691 17.4896Z" fill="#FF1943"/>
<path fill-rule="evenodd" clip-rule="evenodd" d="M0.0158691 17.4896C0.0211029 17.4962 0.0278941 17.5015 0.0356884 17.505L16.3481 23.4323L22.0732 21.3526L5.72516 15.416L0.0158691 17.4896Z" fill="url(#paint4_linear_1380_27057)" style="mix-blend-mode:multiply"/>
<path fill-rule="evenodd" clip-rule="evenodd" d="M32.6613 17.5153C32.656 17.5087 32.6492 17.5034 32.6414 17.4999L16.329 11.5726L10.6039 13.6523L26.952 19.5889L32.6613 17.5153Z" fill="#FF1943"/>
<path fill-rule="evenodd" clip-rule="evenodd" d="M32.6613 17.5153C32.656 17.5087 32.6492 17.5034 32.6414 17.4999L16.329 11.5726L10.6039 13.6523L26.952 19.5889L32.6613 17.5153Z" fill="url(#paint5_linear_1380_27057)" style="mix-blend-mode:multiply"/>
<path fill-rule="evenodd" clip-rule="evenodd" d="M0.0159469 17.4902L32.5822 5.6616C32.6106 5.65129 32.6106 5.61117 32.5822 5.60087L17.9115 0.271741C16.9157 -0.089966 15.8246 -0.0906394 14.8284 0.269839L2.30263 4.80232C0.921143 5.30222 0.000818601 6.61397 0.000818601 8.08312V9.74121C0.000818601 9.76362 0.0230755 9.77922 0.0441405 9.77158L15.1001 4.30997C15.9222 4.01173 16.8228 4.01044 17.6458 4.30632L21.1871 5.57947C21.2156 5.5897 21.2156 5.62993 21.1872 5.64024L0.0340627 13.3173C0.0136006 13.3247 -1.56187e-05 13.3442 8.29129e-06 13.366L0.00450111 17.4563C0.00454175 17.4567 0.00456245 17.4571 0.00456245 17.4576C0.00456245 17.4699 0.00882027 17.4813 0.0159469 17.4902Z" fill="#FF1943"/>
<path fill-rule="evenodd" clip-rule="evenodd" d="M0.0159469 17.4902L32.5822 5.6616C32.6106 5.65129 32.6106 5.61117 32.5822 5.60087L17.9115 0.271741C16.9157 -0.089966 15.8246 -0.0906394 14.8284 0.269839L2.30263 4.80232C0.921143 5.30222 0.000818601 6.61397 0.000818601 8.08312V9.74121C0.000818601 9.76362 0.0230755 9.77922 0.0441405 9.77158L15.1001 4.30997C15.9222 4.01173 16.8228 4.01044 17.6458 4.30632L21.1871 5.57947C21.2156 5.5897 21.2156 5.62993 21.1872 5.64024L0.0340627 13.3173C0.0136006 13.3247 -1.56187e-05 13.3442 8.29129e-06 13.366L0.00450111 17.4563C0.00454175 17.4567 0.00456245 17.4571 0.00456245 17.4576C0.00456245 17.4699 0.00882027 17.4813 0.0159469 17.4902Z" fill="url(#paint6_linear_1380_27057)" fill-opacity="0.25"/>
<path fill-rule="evenodd" clip-rule="evenodd" d="M32.6584 17.5109C32.6665 17.5192 32.672 17.5301 32.673 17.5424L32.6775 21.634C32.6775 21.6558 32.6639 21.6752 32.6434 21.6827L11.4903 29.3597C11.4619 29.3701 11.4619 29.4103 11.4904 29.4205L15.0317 30.6937C15.8547 30.9895 16.7552 30.9883 17.5774 30.69L32.6333 25.2284C32.6544 25.2208 32.6767 25.2364 32.6767 25.2588V26.9169C32.6767 28.386 31.7563 29.6978 30.3748 30.1977L17.8491 34.7301C16.8529 35.0906 15.7618 35.0899 14.766 34.7282L0.095283 29.3991C0.0669131 29.3888 0.0669169 29.3487 0.095283 29.3384L32.6584 17.5109Z" fill="#FF1943"/>
<path fill-rule="evenodd" clip-rule="evenodd" d="M32.6584 17.5109C32.6665 17.5192 32.672 17.5301 32.673 17.5424L32.6775 21.634C32.6775 21.6558 32.6639 21.6752 32.6434 21.6827L11.4903 29.3597C11.4619 29.3701 11.4619 29.4103 11.4904 29.4205L15.0317 30.6937C15.8547 30.9895 16.7552 30.9883 17.5774 30.69L32.6333 25.2284C32.6544 25.2208 32.6767 25.2364 32.6767 25.2588V26.9169C32.6767 28.386 31.7563 29.6978 30.3748 30.1977L17.8491 34.7301C16.8529 35.0906 15.7618 35.0899 14.766 34.7282L0.095283 29.3991C0.0669131 29.3888 0.0669169 29.3487 0.095283 29.3384L32.6584 17.5109Z" fill="url(#paint7_linear_1380_27057)" fill-opacity="0.25"/>
<defs>
<linearGradient id="paint0_linear_1380_27057" x1="8.26075" y1="14.5562" x2="12.7775" y2="25.449" gradientUnits="userSpaceOnUse">
<stop stop-color="#CCCCCC"/>
<stop offset="0.130208" stop-color="#DEDEDE"/>
<stop offset="0.265625" stop-color="#EDEDED"/>
<stop offset="0.484503" stop-color="#F0F0F0"/>
<stop offset="0.822917" stop-color="#EDEDED"/>
<stop offset="0.911458" stop-color="#DEDEDE"/>
<stop offset="1" stop-color="#CCCCCC"/>
</linearGradient>
<linearGradient id="paint1_linear_1380_27057" x1="24.4164" y1="20.4487" x2="19.8997" y2="9.5559" gradientUnits="userSpaceOnUse">
<stop stop-color="#CCCCCC"/>
<stop offset="0.130208" stop-color="#DEDEDE"/>
<stop offset="0.265625" stop-color="#EDEDED"/>
<stop offset="0.484503" stop-color="#F0F0F0"/>
<stop offset="0.822917" stop-color="#EDEDED"/>
<stop offset="0.911458" stop-color="#DEDEDE"/>
<stop offset="1" stop-color="#CCCCCC"/>
</linearGradient>
<linearGradient id="paint2_linear_1380_27057" x1="30.9828" y1="3.1364" x2="18.6503" y2="12.6756" gradientUnits="userSpaceOnUse">
<stop offset="0.0833333" stop-color="white"/>
<stop offset="0.375" stop-color="#FFA2A7" stop-opacity="0.4"/>
<stop offset="1" stop-color="#FF1943"/>
</linearGradient>
<linearGradient id="paint3_linear_1380_27057" x1="1.69468" y1="31.8634" x2="14.0272" y2="22.3242" gradientUnits="userSpaceOnUse">
<stop offset="0.0833333" stop-color="white"/>
<stop offset="0.375" stop-color="#FFA2A7" stop-opacity="0.4"/>
<stop offset="1" stop-color="#FF1943"/>
</linearGradient>
<linearGradient id="paint4_linear_1380_27057" x1="8.26075" y1="14.5562" x2="12.7775" y2="25.449" gradientUnits="userSpaceOnUse">
<stop stop-color="#CCCCCC"/>
<stop offset="0.130208" stop-color="#DEDEDE"/>
<stop offset="0.265625" stop-color="#EDEDED"/>
<stop offset="0.484503" stop-color="#F0F0F0"/>
<stop offset="0.822917" stop-color="#EDEDED"/>
<stop offset="0.911458" stop-color="#DEDEDE"/>
<stop offset="1" stop-color="#CCCCCC"/>
</linearGradient>
<linearGradient id="paint5_linear_1380_27057" x1="24.4164" y1="20.4487" x2="19.8997" y2="9.5559" gradientUnits="userSpaceOnUse">
<stop stop-color="#CCCCCC"/>
<stop offset="0.130208" stop-color="#DEDEDE"/>
<stop offset="0.265625" stop-color="#EDEDED"/>
<stop offset="0.484503" stop-color="#F0F0F0"/>
<stop offset="0.822917" stop-color="#EDEDED"/>
<stop offset="0.911458" stop-color="#DEDEDE"/>
<stop offset="1" stop-color="#CCCCCC"/>
</linearGradient>
<linearGradient id="paint6_linear_1380_27057" x1="30.9828" y1="3.1364" x2="18.6503" y2="12.6756" gradientUnits="userSpaceOnUse">
<stop offset="0.0833333" stop-color="white"/>
<stop offset="0.375" stop-color="#FFA2A7" stop-opacity="0.4"/>
<stop offset="1" stop-color="#FF1943"/>
</linearGradient>
<linearGradient id="paint7_linear_1380_27057" x1="1.69468" y1="31.8634" x2="14.0272" y2="22.3242" gradientUnits="userSpaceOnUse">
<stop offset="0.0833333" stop-color="white"/>
<stop offset="0.375" stop-color="#FFA2A7" stop-opacity="0.4"/>
<stop offset="1" stop-color="#FF1943"/>
</linearGradient>
</defs>
</svg>
